<svg xmlns="http://www.w3.org/2000/svg" xmlns:xlink="http://www.w3.org/1999/xlink" width="80" height="16"><rect id="backgroundrect" width="100%" height="100%" x="0" y="0" fill="none" stroke="none"/><g class="currentLayer"><title>Layer 1</title><g id="svg_5">
<path fill="#ffffff" d="M31,1 H17 C16.4,1 16,1.4 16,2 v12 c0,0.6000000000000001 0.4,1 1,1 h14 c0.6000000000000001,0 1,-0.4 1,-1 V2 C32,1.4 31.6,1 31,1 zM30,13 H18 V6.7 l5.5,3.1 C23.7,10 23.8,10 24,10 s0.30000000000000004,0 0.5,-0.1 L30,6.7 V13 zM30,4.4 L24,7.8 L18,4.4 V3 h12 V4.4 z" id="svg_6"/>
</g><g id="svg_7">
<path fill="#ffffff" d="M35,16 h10 c0.6000000000000001,0 1,-0.4 1,-1 V7.5 l0.30000000000000004,0.30000000000000004 C46.5,7.9 46.8,8 47,8 c0.30000000000000004,0 0.6000000000000001,-0.1 0.8,-0.30000000000000004 c0.4,-0.4 0.30000000000000004,-1 -0.1,-1.4 l-7,-6 c-0.4,-0.30000000000000004 -0.9,-0.30000000000000004 -1.3,0 L36,3.1 V2 c0,-0.6000000000000001 -0.4,-1 -1,-1 S34,1.4 34,2 v2.8 L32.3,6.2 c-0.4,0.4 -0.5,1 -0.1,1.4 c0.4,0.4 1,0.5 1.4,0.1 L34,7.5 V15 C34,15.6 34.4,16 35,16 zM36,5.7 l4,-3.4 l4,3.5 c0,0.1 0,0.1 0,0.2 v8 h-2 v-3 c0,-0.6000000000000001 -0.4,-1 -1,-1 H39 c-0.6000000000000001,0 -1,0.4 -1,1 v3 H36 V5.7 z" id="svg_8"/>
<rect data-color="color-2" x="38" y="6" fill="#ffffff" width="4" height="2" id="svg_9"/>
</g><g id="svg_10">
<circle data-color="color-2" fill="#ffffff" cx="54" cy="8" r="2" id="svg_11"/>
<path fill="#ffffff" d="M58,2 H54 C50.7,2 48,4.7 48,8 s2.7,6 6,6 h4 c3.3,0 6,-2.7 6,-6 S61.3,2 58,2 zM58,12 H54 c-2.2,0 -4,-1.8 -4,-4 s1.8,-4 4,-4 h4 c2.2,0 4,1.8 4,4 S60.2,12 58,12 z" id="svg_12"/>
</g><g id="svg_13">
<path fill="#ffffff" d="M70,0 H65 C64.4,0 64,0.4 64,1 v5 c0,0.6000000000000001 0.4,1 1,1 h5 c0.6000000000000001,0 1,-0.4 1,-1 V1 C71,0.4 70.6,0 70,0 zM69,5 H66 V2 h3 V5 z" id="svg_14"/>
<path fill="#ffffff" d="M79,0 h-5 C73.4,0 73,0.4 73,1 v5 c0,0.6000000000000001 0.4,1 1,1 h5 c0.6000000000000001,0 1,-0.4 1,-1 V1 C80,0.4 79.6,0 79,0 zM78,5 h-3 V2 h3 V5 z" id="svg_15"/>
<path fill="#ffffff" d="M70,9 H65 c-0.6000000000000001,0 -1,0.4 -1,1 v5 c0,0.6000000000000001 0.4,1 1,1 h5 c0.6000000000000001,0 1,-0.4 1,-1 v-5 C71,9.4 70.6,9 70,9 zM69,14 H66 v-3 h3 V14 z" id="svg_16"/>
<path fill="#ffffff" d="M79,9 h-5 c-0.6000000000000001,0 -1,0.4 -1,1 v5 c0,0.6000000000000001 0.4,1 1,1 h5 c0.6000000000000001,0 1,-0.4 1,-1 v-5 C80,9.4 79.6,9 79,9 zM78,14 h-3 v-3 h3 V14 z" id="svg_17"/>
</g><path fill="#ffffff" stroke-dashoffset="" fill-rule="nonzero" marker-start="" marker-mid="" marker-end="" id="svg_18" d="M7.978979082017656,4.444529033918135 C11.134960192682051,-4.218719923301409 23.50019765905554,4.444529033918135 7.978979082017656,15.58299197891455 C-7.542239495020224,4.444529033918135 4.822997971353226,-4.218719923301409 7.978979082017656,4.444529033918135 z" style="color: rgb(0, 0, 0);" class="" fill-opacity="1"/></g></svg>